<?xml version="1.0" encoding="UTF-8"?>
<!DOCTYPE svg PUBLIC "-//W3C//DTD SVG 1.1//EN" "http://www.w3.org/Graphics/SVG/1.1/DTD/svg11.dtd">
<svg width="24px" height="30px" viewBox="0 0 24 30" version="1.1" xmlns="http://www.w3.org/2000/svg">
    <path d="M23.949,14.233c-0.379,-0.39 -0.904,-0.606 -1.448,-0.595l-0.683,0l0,-4.092c0.032,-2.535 -0.986,-4.973 -2.812,-6.731c-1.759,-1.828 -4.198,-2.847 -6.734,-2.815c-2.536,-0.032 -4.976,0.987 -6.734,2.815c-1.826,1.758 -2.844,4.196 -2.812,6.731l0,4.089l-0.68,0c-0.544,-0.011 -1.069,0.205 -1.448,0.595c-0.395,0.382 -0.612,0.912 -0.598,1.461l0,12.266c-0.011,0.544 0.204,1.069 0.595,1.448c0.379,0.391 0.904,0.606 1.448,0.595l20.458,0c0.003,0 0.006,0 0.01,0c1.117,0 2.036,-0.919 2.036,-2.037c0,-0.003 0,-0.006 0,-0.009l0,-12.263c0.011,-0.544 -0.206,-1.069 -0.598,-1.448l0,-0.01Zm-6.211,-0.595l-10.919,0l0,-4.092c-0.022,-1.451 0.557,-2.848 1.599,-3.858c1.009,-1.042 2.407,-1.621 3.857,-1.598c1.451,-0.023 2.848,0.556 3.858,1.598c1.042,1.009 1.621,2.407 1.598,3.858l0.007,4.092Z"
          fill="#d1d1d1"/>
</svg>